<?xml version="1.0" encoding="utf-8"?>
<!-- Generator: Adobe Illustrator 21.1.0, SVG Export Plug-In . SVG Version: 6.00 Build 0)  -->
<svg version="1.1" id="Capa_1" xmlns="http://www.w3.org/2000/svg" xmlns:xlink="http://www.w3.org/1999/xlink" x="0px" y="0px"
	 viewBox="0 0 634 359" style="enable-background:new 0 0 634 359;" xml:space="preserve">
<style type="text/css">
	.st0{fill:white;}
	.st1{fill:white;}
</style>
<path class="st0" d="M560.6,227.7c9,4.6,15.1,11.3,15.1,11.4c1.2,1.1,2.9,1.1,4.2,0.2c0,0,7.3-5.7,7.4-5.8c1.2-1.2,1.1-3.5,0.2-4.4
	c-4.6-5.3-15.9-17.1-32.6-17.1c-10.7,0-19.8,3.5-26,9.2C542.5,219.6,551.6,223.1,560.6,227.7z"/>
<path class="st1" d="M320.6,213.8h-29.1c-1.8,0-3.3,1.5-3.3,3.3c0,0,0,92.9,0,92.9c0,1.8,1.5,3.3,3.3,3.3H302c1.8,0,3.3-1.5,3.3-3.3
	c0,0,0,0,0-0.1v-26.5c0-1.8,1.5-3.1,3.3-3.1c1.7,0,7.5,0,10.1,0c23.4,0,39.6-11.2,39.6-34C358.2,226,341.9,213.8,320.6,213.8z
	 M320.1,265.3c-3.7,0-8.2-0.1-11.6-0.1c-2.5,0-3.3-2.4-3.3-3.5c0-0.8,0-29.4,0-29.4c0-1.8,1.4-3.3,3.2-3.3h10
	c12.3,0,22.1,6.8,22.1,17.2C340.5,258.1,333,265.3,320.1,265.3z"/>
<path class="st1" d="M192.4,246.3c0-20.2-16.3-32.5-37.6-32.5h-29.1c-1.8,0-3.3,1.5-3.3,3.3c0,0,0,92.9,0,92.9
	c0,1.8,1.5,3.3,3.3,3.3h10.5c1.8,0,3.3-1.5,3.3-3.3c0,0,0,0,0-0.1v-26.5c0-1.8,1.5-3.1,3.3-3.1c1.7,0,7.4,0,10.1,0
	C176.2,280.3,192.4,269.1,192.4,246.3z M154.3,265.3c-3.7,0-8.3-0.1-11.6-0.1c-2.5,0-3.3-2.4-3.3-3.5c0-0.8,0-29.4,0-29.4
	c0-1.8,1.5-3.3,3.3-3.3h11.2c12.3,0,20.9,6.8,20.9,17.2C174.7,258.1,167.2,265.3,154.3,265.3z"/>
<path class="st1" d="M427.5,298.1C427.5,298.1,427.4,298.1,427.5,298.1c-0.1,0-12,0-25.4,0c-13.4,0-15.4-11.2-15.4-14.8
	c0-1.5,0-66.6,0-66.6l0,0c0-1.8-1.5-3.3-3.3-3.3h-10.6c-1.8,0-3.3,1.5-3.3,3.3c0,0,0.1,65.2,0.1,67.4c0,3.2,1.6,29.1,30.1,29.1
	c18.5,0,27.7,0,27.7,0h0.1c1.8,0,3.3-1.5,3.3-3.3v-8.5C430.8,299.6,429.3,298.1,427.5,298.1z"/>
<path class="st1" d="M508.1,213.2H498c-1.8,0-3.3,1.5-3.3,3.3c0,0-0.1,13.2,0,15v44.6c0,15.4-8.9,22.8-21.8,22.8
	c-12.7,0-21.6-8.2-21.6-23.5c0,0,0-58.9,0-59c0-1.8-1.5-3.3-3.3-3.3l-10.5,0c-1.8,0-3.2,1.5-3.2,3.3v60c0,25.7,16.5,38.1,38.7,38.1
	c21.9,0,38.4-12.4,38.4-38.4v-59.6C511.4,214.7,509.9,213.2,508.1,213.2z"/>
<path class="st1" d="M105,213.8C105,213.8,105,213.8,105,213.8c-0.1,0-15,0-33.6,0c-23.2,0-27.8,18-27.8,23.8c0,1.7,0,50.3,0,51.9
	c0,5.9,4.6,23.8,27.8,23.8c18.5,0,33.5,0,33.5,0s0.1,0,0.1,0c1.8,0,3.3-1.5,3.3-3.3v-8.5c0-1.8-1.5-3.3-3.3-3.3c0,0-0.1,0-0.1,0
	s-19.7,0-33.1,0c-8.6,0-11.1-6.3-11.1-9.6s0-14.8,0-14.8c0-1.8,1.5-3.3,3.3-3.3h33.6c1.8,0,3.3-1.5,3.3-3.3v-7.5
	c0-1.8-1.5-3.3-3.3-3.3H64c-1.8,0-3.3-0.9-3.3-2.8c0,0,0-12.1,0-15.3c0-3.2,2.5-9.5,11.1-9.5c13.4,0,33.1,0,33.1,0s0,0,0.1,0
	c1.8,0,3.3-1.5,3.3-3.3V217C108.3,215.2,106.8,213.8,105,213.8z"/>
<path class="st1" d="M279,309c0-0.1-0.1-0.2-0.1-0.3l-34.1-92.5c-0.4-1.4-1.7-2.4-3.1-2.4l0,0h-9.7h-9.7l0,0c-1.5,0-2.8,1-3.2,2.4
	L185,308.7c-0.1,0.1-0.1,0.2-0.1,0.3l0,0c-0.1,0.3-0.2,0.6-0.2,1c0,1.8,1.5,3.3,3.3,3.3c0,0,0.1,0,0.1,0h11.3c0,0,0.1,0,0.1,0
	c1.4,0,2.6-0.9,3.1-2.2l0,0l9.8-26.2c0.6-1.7,2.5-3,4.3-3h30.3c1.8,0.1,3.6,1.3,4.3,3l9.8,26.2l0,0c0.4,1.3,1.7,2.2,3.1,2.2
	c0.1,0,0.1,0,0.1,0h11.4c0,0,0.1,0,0.1,0c1.9,0,3.3-1.5,3.3-3.3C279.2,309.6,279.1,309.3,279,309L279,309z M242.2,267.6h-20.5
	c-1.3-0.1-2.4-1.2-2.4-2.5c0-0.3,0-0.5,0.1-0.8l11.9-33.6c0.2-0.4,0.4-0.7,0.6-0.8c0.2,0.1,0.4,0.4,0.6,0.8l11.9,33.6
	c0.1,0.3,0.1,0.5,0.1,0.8C244.6,266.4,243.5,267.5,242.2,267.6z"/>
<path class="st1" d="M557.5,254.4c-10-3.7-20.1-7.3-20.1-15.4c0-3.7,1.9-6.8,5.2-9c-8.7-0.9-17.9,3.5-22,5.8
	c-0.2,1.4-0.4,2.9-0.4,4.4c0,18.4,14.8,24.3,33.3,31c10,3.5,17.7,7.4,17.7,15.6c0,8.6-6.4,13.4-17.2,13.4c-11.2,0-18.9-6.9-20.9-9.4
	v0c0,0,0,0,0,0h0c-0.6-1-1.6-1.7-2.9-1.7c-0.2,0-0.4,0-0.6,0.1h0l0,0l0,0l-9,1.8l0,0h0c-1.5,0.3-2.6,1.6-2.6,3.2
	c0,0.5,0.1,0.9,0.3,1.3c0,0.1,0.1,0.2,0.2,0.3c3.7,6.6,15.3,19.2,35.4,19.2c20.4,0,34.5-10.7,34.5-29.6
	C588.2,267,575.4,260.8,557.5,254.4z"/>
</svg>
